<svg version="1.1" id="Layer_1" xmlns="http://www.w3.org/2000/svg" xmlns:xlink="http://www.w3.org/1999/xlink" x="0px" y="0px"
	 width="100%" viewBox="0 0 256 304" enable-background="new 0 0 256 304" xml:space="preserve">
<path fill="#000000" opacity="1.000000" stroke="none" 
	d="
M107.000000,305.000000 
	C71.333336,305.000000 36.166668,305.000000 1.000000,305.000000 
	C1.000000,203.666672 1.000000,102.333336 1.000000,1.000000 
	C86.333336,1.000000 171.666672,1.000000 257.000000,1.000000 
	C257.000000,102.333336 257.000000,203.666672 257.000000,305.000000 
	C207.166672,305.000000 157.333328,305.000000 107.000000,305.000000 
M133.172363,243.334030 
	C128.472794,238.606964 123.785133,233.867996 119.071510,229.155014 
	C101.985847,212.071671 84.881157,195.007324 67.822052,177.897522 
	C66.597168,176.669006 64.211235,175.409393 65.223648,173.510010 
	C67.025284,170.129929 69.860527,167.117401 73.168724,165.434921 
	C75.967896,164.011322 77.630760,167.562851 79.391968,169.312286 
	C102.089760,191.858414 124.763344,214.429672 147.298996,237.137543 
	C150.637039,240.501114 153.192703,240.692688 156.482498,237.341003 
	C165.555710,228.097092 175.272766,219.428116 183.763214,209.684784 
	C192.743927,199.378845 203.507935,190.956329 212.491821,180.685226 
	C218.713486,173.572098 225.697769,167.118835 232.449448,160.480728 
	C234.580780,158.385208 234.663818,156.751892 232.533432,154.615417 
	C230.464554,152.540588 228.781052,152.350388 226.622452,154.472351 
	C218.215698,162.736450 209.803207,170.993530 201.299728,179.161575 
	C185.704895,194.141235 170.559784,209.590927 155.314575,224.931519 
	C150.955444,229.317902 148.623245,225.412140 145.893005,222.972076 
	C143.292877,220.648300 141.074417,218.585953 144.870758,214.972794 
	C153.074417,207.164963 160.834717,198.893433 168.900986,190.937943 
	C171.718430,188.159180 172.019852,185.968750 169.001312,183.028473 
	C159.094925,173.378967 149.380508,163.532364 139.589233,153.764633 
	C137.506607,151.687027 135.625320,149.683762 132.531006,152.721634 
	C129.347427,155.847137 131.049789,157.831284 133.405502,160.159943 
	C141.226654,167.891266 148.885345,175.788559 156.781799,183.441162 
	C159.430801,186.008362 159.497513,187.811600 156.800629,190.377411 
	C150.792053,196.093887 144.865616,201.915955 139.221008,207.988083 
	C136.119736,211.324234 134.028793,211.341461 130.786270,208.037064 
	C115.381210,192.338104 99.742226,176.868759 84.202126,161.302078 
	C83.051468,160.149429 81.643028,159.141357 81.294167,156.830505 
	C88.730469,149.390106 96.383682,141.762146 103.994545,134.092163 
	C105.467072,132.608215 107.264099,132.635513 109.096214,132.635468 
	C126.426926,132.635101 143.757645,132.638809 161.088348,132.650192 
	C162.751892,132.651276 164.476212,132.548019 165.798538,133.841949 
	C173.633804,141.508957 181.455994,149.189331 189.185608,156.770111 
	C187.015869,160.813324 183.980911,162.988464 181.449158,165.585297 
	C179.304153,167.785400 179.587967,169.552826 181.684113,171.511398 
	C183.592117,173.294159 185.363342,174.343597 187.659821,172.043411 
	C197.076035,162.611984 206.555023,153.243240 215.973282,143.813843 
	C218.352875,141.431442 217.913940,139.004623 215.596924,136.857559 
	C213.164200,134.603271 210.512466,132.577667 208.155991,130.250107 
	C199.146255,121.351021 190.201233,112.386169 181.268127,103.409966 
	C178.959549,101.090248 176.495163,99.414703 173.004822,99.422447 
	C147.508820,99.478989 122.012627,99.462349 96.516495,99.459793 
	C91.431549,99.459282 88.930145,102.506248 87.184280,106.710625 
	C89.649971,108.756630 92.206985,108.537117 94.664719,108.548256 
	C107.329117,108.605637 120.047768,109.339828 132.641724,108.408165 
	C143.282028,107.621025 146.930496,115.361649 152.731705,120.991898 
	C151.300400,122.705025 149.876846,122.377289 148.623184,122.350006 
	C125.376732,121.844040 102.157951,123.798615 78.929230,123.254219 
	C71.655907,123.083763 66.408958,125.012352 61.445385,130.381058 
	C54.345806,138.060074 47.097771,145.664581 38.984150,152.377609 
	C36.613960,154.338654 33.663486,156.931915 37.653568,160.572311 
	C40.990658,163.616943 43.496887,161.445999 45.295612,159.308502 
	C51.751354,151.636978 59.263744,145.029785 66.197670,137.847427 
	C71.454376,132.402374 82.511070,130.614258 89.910591,133.955734 
	C89.552505,136.082123 87.839066,137.266983 86.474564,138.637299 
	C76.245201,148.910172 66.108276,159.280731 55.659592,169.326553 
	C51.965103,172.878616 52.239994,175.220459 55.743011,178.678787 
	C74.240646,196.940353 92.550522,215.392181 110.916580,233.786942 
	C118.052170,240.933685 125.165276,248.102875 132.286728,255.263718 
	C134.576813,257.566467 136.591248,257.175385 138.594223,254.792984 
	C140.520935,252.501312 140.782578,250.481339 138.312576,248.377655 
	C136.667725,246.976761 135.205338,245.361633 133.172363,243.334030 
M126.600319,159.785156 
	C125.053162,157.977890 122.356583,156.434128 125.179581,153.621246 
	C128.463074,150.349503 131.416534,146.715561 135.320984,144.135284 
	C137.429062,144.919403 138.682220,146.512787 140.086304,147.907425 
	C147.647690,155.417999 155.235779,162.902161 162.742401,170.467133 
	C165.323593,173.068375 167.550781,173.491379 170.244949,170.523102 
	C173.149796,167.322739 176.345795,164.380554 179.490616,161.405930 
	C182.213577,158.830338 182.321640,156.372787 179.612640,153.710571 
	C174.624115,148.808212 169.701645,143.838638 164.744690,138.904083 
	C162.859558,137.027466 160.550064,136.390594 157.925217,136.397888 
	C142.770111,136.440048 127.614693,136.467911 112.459831,136.399384 
	C109.244896,136.384842 106.651009,137.402267 104.414192,139.671417 
	C99.855026,144.296448 95.338852,148.972580 90.600357,153.409134 
	C87.364754,156.438599 87.773293,158.692337 90.835381,161.649017 
	C95.496109,166.149323 100.755737,170.010590 104.893356,175.076752 
	C113.001907,185.004898 122.993706,193.098602 131.754456,202.396912 
	C134.293732,205.091980 136.619537,204.471085 138.912140,201.911072 
	C142.224335,198.212540 145.234299,194.245483 149.411499,191.347305 
	C152.997650,188.859161 153.273117,186.155731 149.790237,182.843948 
	C142.068848,175.501846 134.651245,167.840286 126.600319,159.785156 
z"/>
<path fill="#000000" opacity="1.000000" stroke="none" 
	d="
M202.605652,144.464294 
	C194.954330,152.009079 196.775055,151.817200 189.513138,144.678802 
	C178.938065,134.283600 168.533646,123.714706 158.070450,113.205940 
	C157.032700,112.163666 156.091934,111.024818 155.030411,109.846733 
	C163.658966,106.355652 175.134338,108.635902 181.104660,114.733391 
	C188.331863,122.114517 195.554413,129.503082 202.927994,136.736542 
	C205.698715,139.454605 205.821411,141.736877 202.605652,144.464294 
z"/>
</svg>